<svg xmlns="http://www.w3.org/2000/svg" viewBox="0 0 144 126" style="enable-background:new 0 0 144 126" xml:space="preserve"><path d="M9.74 7.71H25.2c2.11 0 3.94.27 5.47.82 1.54.54 2.83 1.33 3.89 2.35a10.15 10.15 0 0 1 2.57 3.7c.59 1.44.89 3.02.89 4.75 0 1.63-.27 3.14-.82 4.51-.54 1.38-1.32 2.56-2.33 3.55-1.01.99-2.23 1.77-3.67 2.33s-3.04.84-4.8.84h-8.02v11.47H9.74V7.71zm14.92 16.13c1.54 0 2.72-.42 3.55-1.25.83-.83 1.25-1.94 1.25-3.31 0-1.38-.42-2.46-1.25-3.24-.83-.78-2.02-1.18-3.55-1.18h-6.29v8.98h6.29zM88.79 42.85c-2.59 0-4.94-.45-7.03-1.34s-3.87-2.14-5.33-3.74-2.58-3.5-3.38-5.69c-.8-2.19-1.2-4.57-1.2-7.13 0-2.56.4-4.94 1.2-7.13.8-2.19 1.93-4.09 3.38-5.69 1.46-1.6 3.23-2.85 5.33-3.74 2.1-.9 4.44-1.34 7.03-1.34s4.94.45 7.03 1.34c2.1.9 3.88 2.14 5.35 3.74s2.61 3.5 3.41 5.69c.8 2.19 1.2 4.57 1.2 7.13 0 2.56-.4 4.94-1.2 7.13-.8 2.19-1.94 4.09-3.41 5.69-1.47 1.6-3.26 2.85-5.35 3.74s-4.44 1.34-7.03 1.34zm.05-6.92c1.38 0 2.58-.28 3.62-.84a7.803 7.803 0 0 0 2.62-2.3c.7-.98 1.22-2.14 1.56-3.48.34-1.34.5-2.8.5-4.37 0-1.57-.17-3.02-.5-4.37-.34-1.34-.86-2.51-1.56-3.5a7.68 7.68 0 0 0-2.62-2.33c-1.04-.56-2.25-.84-3.62-.84s-2.58.28-3.62.84a7.68 7.68 0 0 0-2.62 2.33c-.7.99-1.23 2.16-1.58 3.5-.35 1.34-.53 2.8-.53 4.37 0 1.57.18 3.02.53 4.37.35 1.34.88 2.5 1.58 3.48.7.98 1.58 1.74 2.62 2.3 1.04.56 2.24.84 3.62.84zM119.13 42.65c-2.02 0-3.78-.26-5.28-.79s-2.75-1.27-3.74-2.23-1.74-2.11-2.23-3.46c-.5-1.34-.74-2.83-.74-4.46v-3.02h7.73v2.83c0 1.47.33 2.53.98 3.17.66.64 1.58.96 2.76.96 1.25 0 2.15-.36 2.71-1.08.56-.72.84-1.7.84-2.95V7.71h8.5v24.1c0 3.14-.82 5.62-2.45 7.44-.96 1.06-2.21 1.89-3.74 2.5s-3.33.9-5.34.9zM104.89 46.49h8.54l10.18 17.23c.13.26.33.62.6 1.1.27.48.54.96.79 1.44.32.58.64 1.18.96 1.82h.1c-.03-.77-.05-1.5-.05-2.21-.03-.61-.05-1.2-.05-1.78v-17.6h8.3v34.32h-8.54l-10.08-16.99c-.16-.22-.38-.58-.65-1.08-.27-.5-.54-1.02-.79-1.56-.32-.61-.66-1.26-1.01-1.97h-.1c0 .83.02 1.62.05 2.35 0 .64.01 1.27.02 1.9.02.62.02 1.08.02 1.37v15.98h-8.3V46.49zM115.35 84.64h8.5v34.32h-8.5V84.64zM41.03 7.71h15.6c2.11 0 3.94.26 5.47.79 1.54.53 2.85 1.3 3.94 2.33 1.09 1.02 1.94 2.22 2.54 3.58.61 1.36.91 2.9.91 4.63 0 2.3-.57 4.28-1.7 5.93-1.14 1.65-2.7 2.89-4.68 3.72l7.97 13.34h-9.55l-6.96-12.14h-4.9v12.14h-8.64V7.71zm15.12 15.5c1.54 0 2.71-.37 3.53-1.1.82-.74 1.22-1.78 1.22-3.12s-.41-2.37-1.22-3.07c-.82-.7-1.99-1.06-3.53-1.06h-6.48v8.35h6.48z"/></svg>